<svg width="20" height="20" viewBox="0 0 20 20" fill="none" xmlns="http://www.w3.org/2000/svg">
<g id="bars">
<path id="Vector" d="M0.762338 2C0.342449 2 0 2.44621 0 3C0 3.55378 0.342448 4 0.762338 4H19.2377C19.6576 4 20 3.55379 20 3C20 2.44622 19.6576 2 19.2377 2H0.762338Z" fill="#A3A3A3"/>
<path id="Vector_2" d="M0.762338 9.25085C0.342449 9.25085 0 9.69705 0 10.2508C0 10.8046 0.342448 11.2509 0.762338 11.2509H19.2377C19.6576 11.2509 20 10.8046 20 10.2508C20 9.69706 19.6576 9.25085 19.2377 9.25085H0.762338Z" fill="#A3A3A3"/>
<path id="Vector_3" d="M0.762338 16.5017C0.342449 16.5017 0 16.9479 0 17.5016C0 18.0555 0.342448 18.5017 0.762338 18.5017H19.2377C19.6576 18.5017 20 18.0555 20 17.5016C20 16.9479 19.6576 16.5017 19.2377 16.5017H0.762338Z" fill="#A3A3A3"/>
</g>
</svg>
